<?xml version="1.0" encoding="utf-8"?>
<!-- Generator: Adobe Illustrator 18.0.0, SVG Export Plug-In . SVG Version: 6.00 Build 0)  -->
<!DOCTYPE svg PUBLIC "-//W3C//DTD SVG 1.1//EN" "http://www.w3.org/Graphics/SVG/1.1/DTD/svg11.dtd">
<svg version="1.1" id="Layer_2" xmlns="http://www.w3.org/2000/svg" xmlns:xlink="http://www.w3.org/1999/xlink" x="0px" y="0px"
	 viewBox="0 0 300 300" enable-background="new 0 0 300 300" xml:space="preserve">
<path d="M300,193.318v29.413c0,14.552-11.798,26.337-26.344,26.337h-8.144c0.69-2.839,1.157-5.758,1.157-8.821
	c0-20.678-16.833-37.498-37.511-37.498s-37.511,16.82-37.511,37.498c0,3.063,0.46,5.981,1.157,8.821h-85.61
	c0.69-2.839,1.157-5.758,1.157-8.821c0-20.678-16.826-37.498-37.504-37.498c-20.684,0-37.517,16.82-37.517,37.498
	c0,3.063,0.46,5.981,1.15,8.821h-8.137C11.798,249.068,0,237.283,0,222.731v-29.413c0-14.559,11.798-26.344,26.344-26.344h30.78
	c15.407-39.055,59.424-67.035,110.554-67.035c51.32,0,95.456,28.177,110.711,67.456C290.673,169.616,300,180.376,300,193.318z
	 M229.152,217.801c-12.409,0-22.459,10.05-22.459,22.446c0,1.571,0.164,3.096,0.467,4.568c0.007,0.072,0.046,0.131,0.059,0.191
	c0.302,1.393,0.716,2.761,1.262,4.049c0.007,0,0.007,0,0.007,0.007c3.431,8.025,11.384,13.652,20.658,13.652
	s17.227-5.633,20.665-13.652c0-0.007,0-0.007,0.007-0.007c0.546-1.288,0.96-2.655,1.262-4.049c0.013-0.066,0.053-0.125,0.059-0.191
	c0.309-1.479,0.467-2.997,0.467-4.568C251.611,227.851,241.562,217.801,229.152,217.801z M70.841,217.801
	c-12.409,0-22.466,10.05-22.466,22.446c0,1.571,0.158,3.096,0.467,4.568c0,0.02,0.007,0.026,0.007,0.046
	c2.13,10.194,11.161,17.858,21.992,17.858c9.274,0,17.227-5.633,20.658-13.652c0-0.007,0-0.007,0-0.007
	c0.559-1.288,0.973-2.655,1.275-4.075c0.013-0.059,0.046-0.112,0.053-0.164c0.309-1.479,0.467-2.997,0.467-4.568
	C93.294,227.851,83.244,217.801,70.841,217.801z M46.252,82.113c-13.435-3.438-16.767-5.107-16.767-10.214v-0.223
	c0-3.773,3.438-6.77,9.991-6.77c5.337,0,10.668,1.893,16.333,5.219c1.328,0.782,2.649,1.229,4.325,1.229
	c4.443,0,7.992-3.444,7.992-7.881c0-3.332-1.893-5.672-3.786-6.77c-4.89-3.122-10.431-5.179-16.53-6.178v-5.843
	c0-4.088-3.306-7.401-7.394-7.401s-7.394,3.313-7.394,7.401v5.791C20.77,52.733,12.495,61.225,12.495,73.24v0.223
	c0,15.439,10.109,19.771,25.759,23.76c12.994,3.339,15.656,5.554,15.656,9.879v0.223c0,4.548-4.226,7.322-11.22,7.322
	c-7.552,0-13.98-2.662-19.876-6.987c-1.111-0.776-2.662-1.545-4.877-1.545c-4.443,0-7.992,3.438-7.992,7.874
	c0,2.662,1.328,5.107,3.221,6.441c6.014,4.305,12.843,7.033,19.856,8.354v6.113c0,4.082,3.306,7.394,7.394,7.394
	s7.394-3.313,7.394-7.394v-5.501c13.79-1.715,23.083-10.037,23.083-23.728v-0.23C70.9,91.887,62.007,86.221,46.252,82.113z"/>
</svg>
