<?xml version="1.0" encoding="UTF-8" standalone="no"?>
<!-- Generator: Adobe Illustrator 18.0.0, SVG Export Plug-In . SVG Version: 6.00 Build 0)  -->

<svg
   xmlns:dc="http://purl.org/dc/elements/1.1/"
   xmlns:cc="http://creativecommons.org/ns#"
   xmlns:rdf="http://www.w3.org/1999/02/22-rdf-syntax-ns#"
   xmlns:svg="http://www.w3.org/2000/svg"
   xmlns="http://www.w3.org/2000/svg"
   xmlns:sodipodi="http://sodipodi.sourceforge.net/DTD/sodipodi-0.dtd"
   xmlns:inkscape="http://www.inkscape.org/namespaces/inkscape"
   version="1.1"
   id="Layer_2"
   x="0px"
   y="0px"
   viewBox="0 0 300.00001 225.438"
   enable-background="new 0 0 300 300"
   xml:space="preserve"
   inkscape:version="0.48.5 r10040"
   width="100%"
   height="100%"
   sodipodi:docname="dollarcar1.svg"><metadata
   id="metadata4347"><rdf:RDF><cc:Work
       rdf:about=""><dc:format>image/svg+xml</dc:format><dc:type
         rdf:resource="http://purl.org/dc/dcmitype/StillImage" /><dc:title></dc:title></cc:Work></rdf:RDF></metadata><defs
   id="defs4345" /><sodipodi:namedview
   pagecolor="#ffffff"
   bordercolor="#666666"
   borderopacity="1"
   objecttolerance="10"
   gridtolerance="10"
   guidetolerance="10"
   inkscape:pageopacity="0"
   inkscape:pageshadow="2"
   inkscape:window-width="1410"
   inkscape:window-height="863"
   id="namedview4343"
   showgrid="false"
   inkscape:zoom="0.78666667"
   inkscape:cx="271.39829"
   inkscape:cy="18.26562"
   inkscape:window-x="405"
   inkscape:window-y="51"
   inkscape:window-maximized="0"
   inkscape:current-layer="Layer_2"
   fit-margin-top="0"
   fit-margin-left="0"
   fit-margin-right="0"
   fit-margin-bottom="0" />

<path
   d="m 300,156.037 v 29.413 c 0,14.552 -11.798,26.337 -26.344,26.337 h -8.144 c 0.69,-2.839 1.157,-5.758 1.157,-8.821 0,-20.678 -16.833,-37.498 -37.511,-37.498 -20.678,0 -37.511,16.82 -37.511,37.498 0,3.063 0.46,5.981 1.157,8.821 h -85.61 c 0.69,-2.839 1.157,-5.758 1.157,-8.821 0,-20.678 -16.825999,-37.498 -37.503999,-37.498 -20.684,0 -37.517,16.82 -37.517,37.498 0,3.063 0.46,5.981 1.15,8.821 h -8.137 C 11.798001,211.787 0,200.002 0,185.45 v -29.413 c 0,-14.559 11.798001,-26.344 26.344001,-26.344 h 30.78 C 72.531001,90.637998 116.548,62.657998 167.678,62.657998 c 51.32,0 95.456,28.177 110.711,67.456002 12.284,2.221 21.611,12.981 21.611,25.923 z m -70.848,24.483 c -12.409,0 -22.459,10.05 -22.459,22.446 0,1.571 0.164,3.096 0.467,4.568 0.007,0.072 0.046,0.131 0.059,0.191 0.302,1.393 0.716,2.761 1.262,4.049 0.007,0 0.007,0 0.007,0.007 3.431,8.025 11.384,13.652 20.658,13.652 9.274,0 17.227,-5.633 20.665,-13.652 0,-0.007 0,-0.007 0.007,-0.007 0.546,-1.288 0.96,-2.655 1.262,-4.049 0.013,-0.066 0.053,-0.125 0.059,-0.191 0.309,-1.479 0.467,-2.997 0.467,-4.568 0.005,-12.396 -10.044,-22.446 -22.454,-22.446 z m -158.310999,0 c -12.409,0 -22.466,10.05 -22.466,22.446 0,1.571 0.158,3.096 0.467,4.568 0,0.02 0.007,0.026 0.007,0.046 2.13,10.194 11.161,17.858 21.992,17.858 9.274,0 17.227,-5.633 20.658,-13.652 0,-0.007 0,-0.007 0,-0.007 0.559,-1.288 0.973,-2.655 1.275,-4.075 0.013,-0.059 0.046,-0.112 0.053,-0.164 0.309,-1.479 0.467,-2.997 0.467,-4.568 0,-12.402 -10.05,-22.452 -22.453,-22.452 z m -24.589,-135.688002 c -13.435,-3.438 -16.767,-5.107 -16.767,-10.214 v -0.223 c 0,-3.773 3.438,-6.77 9.991,-6.77 5.337,0 10.668,1.893 16.333,5.219 1.328,0.782 2.649,1.229 4.325,1.229 4.443,0 7.992,-3.444 7.992,-7.881 0,-3.332 -1.893,-5.672 -3.786,-6.77 C 59.450001,16.3 53.909001,14.243 47.810001,13.244 V 7.4009986 c 0,-4.087999 -3.306,-7.40099895471913 -7.394,-7.40099895471913 -4.088,0 -7.394,3.31299995471913 -7.394,7.40099895471913 V 13.192 c -12.252,2.26 -20.527,10.751998 -20.527,22.766998 v 0.223 c 0,15.439 10.109,19.771 25.759,23.76 12.994,3.339 15.656,5.554 15.656,9.879 v 0.223 c 0,4.548 -4.226,7.322 -11.22,7.322 -7.552,0 -13.98,-2.662 -19.876,-6.987 -1.111,-0.776 -2.662,-1.545 -4.877,-1.545 -4.443,0 -7.992,3.438 -7.992,7.874 0,2.662 1.328,5.107 3.221,6.441 6.014,4.305 12.843,7.033 19.856,8.354 v 6.113 c 0,4.082002 3.306,7.394002 7.394,7.394002 4.088,0 7.394,-3.313 7.394,-7.394002 v -5.501 c 13.79,-1.715 23.083,-10.037 23.083,-23.728 v -0.23 c 0.007,-13.551 -8.886,-19.217 -24.641,-23.325 z"
   id="path4341"
   style="fill:#e6e6e6"
   inkscape:connector-curvature="0" /></svg>